<svg xmlns="http://www.w3.org/2000/svg" width="64.26" height="64.26" viewBox="0 0 64.26 64.26"><g id="Layer_2" data-name="Layer 2"><g id="Layer_1-2" data-name="Layer 1"><g id="ns_disqus_comments"><rect width="64.26" height="64.26" style="fill:#268fdd"/><polygon points="27.59 37.72 27.59 25.58 35.19 25.58 39.92 29.18 40.54 33.81 38.48 36.49 34.06 39.88 31.59 38.23 28.1 38.54 27.59 37.72" style="fill:#fff"/><path d="M13.29,47c.26-.68.51-1.34.78-2,.67-1.65,1.36-3.3,2-5a1,1,0,0,0,0-.73,17.27,17.27,0,0,1-1.35-9C15.64,23.2,19.36,18,26,15.37c6.9-2.76,13.37-1.56,19,3.36a17.38,17.38,0,0,1,5.91,12.06,18.12,18.12,0,0,1-20.7,19.36,17.92,17.92,0,0,1-8.86-3.85,1.19,1.19,0,0,0-.79-.18c-2.34.3-4.67.64-7,1A2,2,0,0,1,13.29,47Zm12.49-14.4c0,2.76,0,5.51,0,8.27,0,.51.16.68.67.66,1,0,2,0,3,0a54.79,54.79,0,0,0,6-.31,8.37,8.37,0,0,0,5.81-3.58,9,9,0,0,0,1.44-6.34,7.87,7.87,0,0,0-2-4.59,9.89,9.89,0,0,0-7.3-3c-2.28-.09-4.56,0-6.85,0-.58,0-.78.16-.77.77C25.8,27.15,25.78,29.89,25.78,32.62Z" style="fill:#fff"/><path d="M26.66,32.55c0-2.35,0-4.71,0-7.07,0-.52.16-.66.67-.66,2,0,3.93-.05,5.9,0a8.53,8.53,0,0,1,6.28,2.62,6.74,6.74,0,0,1,1.76,4A7.74,7.74,0,0,1,40,36.88,7.16,7.16,0,0,1,35,40a46.92,46.92,0,0,1-5.18.27c-.87,0-1.74,0-2.61,0-.43,0-.57-.13-.57-.58C26.67,37.3,26.66,34.93,26.66,32.55Zm4.26,3.91a21.37,21.37,0,0,0,2.67,0,4.94,4.94,0,0,0,1.82-.67A3.65,3.65,0,0,0,37,32.21a3.39,3.39,0,0,0-2.44-3.3,15.21,15.21,0,0,0-2.88-.3c-.73,0-.73,0-.73.71v7.14Z" style="fill:#268fdd"/></g></g></g></svg>