<svg xmlns="http://www.w3.org/2000/svg" width="64" height="64" viewBox="0 0 64 64"><g id="Layer_2" data-name="Layer 2"><g id="Layer_1-2" data-name="Layer 1"><g id="ns_disqus_comments"><rect width="64" height="64" style="fill:#2e9efe"/><polygon points="29.82 35.79 29.82 25.38 36.35 25.38 40.41 28.47 40.94 32.44 39.18 34.74 35.38 37.65 33.26 36.23 30.27 36.5 29.82 35.79" style="fill:#fff"/><path d="M15.83,44.78c.23-.58.44-1.15.67-1.71.58-1.42,1.17-2.83,1.73-4.25a.94.94,0,0,0,0-.64,14.86,14.86,0,0,1-1.15-7.75c.78-6.09,4-10.54,9.68-12.82C32.67,15.25,38.22,16.28,43,20.5a14.94,14.94,0,0,1,5.08,10.35A15.61,15.61,0,0,1,22.75,44.16a1.06,1.06,0,0,0-.68-.16c-2,.26-4,.55-6,.83ZM26.55,32.42c0,2.36,0,4.73,0,7.09,0,.45.14.59.57.58.87,0,1.73,0,2.6,0a46.68,46.68,0,0,0,5.16-.26,7.16,7.16,0,0,0,5-3.08,7.75,7.75,0,0,0,1.23-5.44,6.74,6.74,0,0,0-1.75-3.93,8.51,8.51,0,0,0-6.26-2.61c-1.95-.08-3.92,0-5.87,0-.51,0-.67.14-.67.66C26.57,27.73,26.55,30.07,26.55,32.42Z" style="fill:#fff"/><path d="M26.55,32.42c0-2.35,0-4.69,0-7,0-.52.16-.66.67-.66,1.95,0,3.92,0,5.87,0a8.51,8.51,0,0,1,6.26,2.61,6.74,6.74,0,0,1,1.75,3.93,7.75,7.75,0,0,1-1.23,5.44,7.16,7.16,0,0,1-5,3.08,46.68,46.68,0,0,1-5.16.26c-.87,0-1.73,0-2.6,0-.43,0-.57-.13-.57-.58C26.56,37.15,26.55,34.78,26.55,32.42Zm4.24,3.89a21.39,21.39,0,0,0,2.67,0,4.68,4.68,0,0,0,1.8-.67,3.6,3.6,0,0,0,1.56-3.53,3.37,3.37,0,0,0-2.43-3.28,15.17,15.17,0,0,0-2.86-.3c-.73-.05-.74,0-.74.7v7.11Z" style="fill:#2e9efe"/></g></g></g></svg>