<?xml version="1.0" ?><svg enable-background="new 0 0 217.9996 212" id="disqus" version="1.1" viewBox="0 0 217.9996 212" xml:space="preserve" xmlns="http://www.w3.org/2000/svg" xmlns:xlink="http://www.w3.org/1999/xlink"><g><path d="M111.9997,0c-58.4492,0-106,47.5508-106,106c0,16.4336,3.6484,32.1602,10.8477,46.7656L0.3082,192.4609   c-0.5586,1.3398-0.3477,2.875,0.5488,4.0156c0.8965,1.1328,2.3164,1.7031,3.7754,1.4727l43.9199-7.0273   C66.9723,204.7188,88.8727,212,111.9997,212c58.4492,0,106-47.5508,106-106S170.4489,0,111.9997,0z" fill="#535353"/><path d="M111.9997,204c-21.9219,0-42.6484-7.0742-59.9375-20.4609c-0.707-0.5469-1.5684-0.8359-2.4492-0.8359   c-0.2109,0-0.4219,0.0156-0.6328,0.0508l-38.5293,6.1641l14.4883-34.7695c0.4531-1.0898,0.4023-2.3203-0.1367-3.3672   C17.6344,136.8438,13.9997,121.7773,13.9997,106c0-54.0391,43.9629-98,98-98s98,43.9609,98,98S166.0368,204,111.9997,204z" fill="#D8D8D8"/><path d="M119.9997,52h-50c-2.209,0-4,1.7891-4,4v104c0,2.2109,1.791,4,4,4h50c29.7754,0,54-24.2344,54-54.0195   v-3.9609C173.9996,76.2344,149.775,52,119.9997,52z" fill="#535353"/><path d="M165.9996,109.9805c0,25.375-20.6348,46.0195-46,46.0195h-46V60h46c25.3652,0,46,20.6445,46,46.0195   V109.9805z" fill="#FFFFFF"/><path d="M114.0055,80h-12.0059c-2.209,0-4,1.7891-4,4v48c0,2.2109,1.791,4,4,4h12.0059   c15.4355,0,27.9941-12.5625,27.9941-28S129.4411,80,114.0055,80z" fill="#535353"/><path d="M114.0055,128h-8.0059V88h8.0059c11.0254,0,19.9941,8.9727,19.9941,20S125.0309,128,114.0055,128z" fill="#D8D8D8"/></g></svg>